P1
# Black and white representation of 0-9 digits. 
# Each digit is on 8x12 rectangle
8 120

00000000
00011000
00100100
01000010
01000010
01000010
01000010
01000010
01000010
00100100
00011000
00000000

00000000
00001000
00001000
00011000
00101000
00001000
00001000
00001000
00001000
00001000
01111110
00000000

00000000
00011000
00100100
01000010
01000010
00000010
00000100
00011000
00100000
01000000
01111110
00000000

00000000
00011000
00100100
01000010
00000010
00001100
00000100
00000010
01000010
01000100
00111000
00000000

00000000
00001000
00011000
00101000
00101000
01001000
01001000
01111110
00001000
00001000
00001000
00000000

00000000
01111110
01000000
01000000
01000000
01111000
00000100
00000010
00000010
01000100
00111000
00000000

00000000
00011000
00100100
01000010
01000000
01011000
01100100
01000010
01000010
00100100
00011000
00000000

00000000
01111110
01000010
00000100
00000100
00001000
00111110
00010000
00010000
00010000
00010000
00000000

00000000
00011000
00100100
01000010
00100100
00011000
00100100
01000010
01000010
00100100
00011000
00000000

00000000
00011000
00100100
01000010
01000010
00100110
00011010
00000010
01000010
00100100
00011000
00000000
